<?xml version="1.0" encoding="utf-8"?>
<!-- Generator: Adobe Illustrator 27.0.0, SVG Export Plug-In . SVG Version: 6.00 Build 0)  -->
<svg version="1.1" id="Livello_1" xmlns="http://www.w3.org/2000/svg" xmlns:xlink="http://www.w3.org/1999/xlink" x="0px" y="0px"
	 viewBox="0 0 1024 276.7" style="enable-background:new 0 0 1024 276.7;" xml:space="preserve">
<style type="text/css">
	.st0{fill:#D81F26;}
</style>
<g>
	<g>
		<path class="st0" d="M1.5,5.9c18.8,0,37.5-0.1,56.3-0.1c14.5,0,32,2.8,42,14.4c10.8,12.5,12.4,28.3,13.1,44.2c0,4.1,0,6.1,0,10.2
			c-0.6,11-1.2,22.2-6,32.3c-4,8.4-10,14.7-18.1,18.9c0,0.3,0,0.4,0,0.7c22.1,6.8,27.9,31.1,27.7,51.6c0,8.7,0,13.1,0,21.8
			c-0.9,17-3.5,32.7-14.4,46.4c-10.1,12.6-26.6,18.5-42.1,20.5c-19.5,2.4-38.9,5-58.4,7.7C1.5,185.1,1.5,95.5,1.5,5.9z M53.2,112.5
			c7.4-0.4,13-2.8,16.8-7.2c3.7-4.4,5.6-11.5,5.6-21.4c0-5.8,0-8.7,0-14.4c0-9.4-1.5-16.1-4.6-20.3c-3-4.1-7.8-6.2-14.4-6
			c-7.2,0.1-10.8,0.2-18,0.4c0,23.2,0,46.5,0,69.7C44.5,112.9,47.4,112.8,53.2,112.5z M59.9,229.6c6.5-0.7,11.4-3.1,14.5-7.3
			c3.2-4.1,4.7-10.9,4.8-20.3c0-9,0-13.5,0-22.6c0-11.8-1.8-19.9-5.6-24.2c-3.7-4.3-9.9-6.2-18.4-5.6c-6.6,0.5-9.9,0.7-16.6,1.2
			c0,27,0,54,0,81C47.1,231,51.4,230.5,59.9,229.6z"/>
		<path class="st0" d="M161,243c-11.9-11.8-13.7-29.5-14.5-45.4c0.1-44.1,0.2-88.2,0.2-132.2c0.9-16.4,2.9-34.1,14.7-46.8
			C172,7,188.1,1.8,203.4,2.1c14.8,0.3,31.7,4.1,42,16c10.5,12.2,15,29,14.5,44.9c-0.1,42.4-0.2,84.9-0.2,127.3
			c0.4,16.3-4.3,33.3-14.7,45.9c-10.1,12.4-26.9,17.7-42.1,19.3C188.2,257.1,171.8,253.7,161,243z M222.4,194.8
			c0.1-44.5,0.2-89.1,0.3-133.6c1-12.5-6-24-19.3-23.9C189.3,37.4,184,49.4,184,62c-0.1,45.1-0.2,90.3-0.3,135.4
			c-0.1,12.3,5.2,24.2,19.3,23C216.3,219.2,223.3,207.5,222.4,194.8z"/>
		<path class="st0" d="M307.8,232.4c-11.4-11.1-14.5-28.6-14.5-43.8c0.1-42.1,0.2-84.1,0.2-126.2c0.1-15.5,3.4-33,14.7-44.6
			c10.8-11.1,26.9-16,42.1-15.7c14.7,0.3,31.6,3.9,42,15.5c10.5,11.7,15,28.1,14.5,43.6c0,41.2-0.1,82.4-0.1,123.6
			c0.4,15.7-4.2,32.1-14.6,44.1c-10.3,11.8-27.2,16.1-42.1,17.1C334.9,246.9,318.7,243.1,307.8,232.4z M369.2,188.1
			c0.1-43,0.1-86,0.2-129c1-12.4-6.3-23.2-19.3-23.2c-13.7,0-19.4,11.1-19.4,23.6c-0.1,43.3-0.1,86.6-0.2,129.9
			c-0.1,12.4,5.7,23.3,19.3,22.7C362.8,211.5,370.2,200.7,369.2,188.1z"/>
		<path class="st0" d="M443,5.4c12.4,0,24.9,0,37.3,0c0,66.8,0,133.5-0.1,200.3c20.5-0.1,41-0.1,61.5,0c0,11.1,0,22.3,0,33.4
			c-33-0.2-65.9,0-98.9,0.5C442.9,161.6,443,83.5,443,5.4z"/>
		<path class="st0" d="M570.8,5.4c32.9,0,65.7,0,98.6,0c0,11.3,0,22.6,0,33.8c-20.5-0.1-40.9-0.2-61.4-0.3c0,21.8,0,43.6,0.1,65.4
			c16.1,0.2,32.1,0.4,48.2,0.7c0,11.3,0,22.5,0,33.8c-16.1-0.4-32.1-0.7-48.2-0.9c0,34.1,0.1,68.2,0.1,102.3
			c-12.5-0.3-24.9-0.6-37.4-0.8C570.9,161.5,570.8,83.5,570.8,5.4z"/>
		<path class="st0" d="M698.6,5.5c12.4,0,24.9,0,37.3,0c0.1,68.7,0.3,137.3,0.4,206c20.5,1.1,40.9,2.3,61.4,3.7
			c0,11.6,0,23.3,0.1,34.9c-32.9-2.5-65.8-4.6-98.7-6.4C698.8,164.3,698.7,84.9,698.6,5.5z"/>
		<path class="st0" d="M826.3,5.6c12.4,0,24.9,0,37.3,0c0.1,83.4,0.3,166.8,0.5,250.2c-12.4-1.2-24.8-2.3-37.3-3.4
			C826.6,170.2,826.5,87.9,826.3,5.6z"/>
		<path class="st0" d="M935.6,131.7c-13.5-42.1-27.2-84.1-41.2-126c13.1,0,26.2,0,39.3,0.1c8.5,28,16.9,56.1,25.2,84.1
			c0.3,0,0.4,0,0.7,0c8.6-28,17.2-56,25.7-84.1c11.7,0,23.5,0,35.2,0.1c-13.4,42.9-27.1,85.7-40.9,128.4
			c14.6,46.7,28.9,93.4,42.9,140.3c-13-1.8-26.1-3.6-39.1-5.3c-8.9-31.4-18-62.8-27.1-94.1c-0.3,0-0.4,0-0.7-0.1
			c-9.1,29.2-18.3,58.3-27.6,87.4c-11.7-1.3-23.4-2.6-35.2-3.8C907.3,216.5,921.5,174.1,935.6,131.7z"/>
	</g>
</g>
</svg>
